<?xml version="1.0" encoding="UTF-8"?>
<svg id="Pictos_Cartes_à_Histoires" data-name="Pictos Cartes à Histoires" xmlns="http://www.w3.org/2000/svg" viewBox="0 0 32 32">
  <defs>
    <style>
      .cls-1 {
        fill-rule: evenodd;
        stroke-width: 0px;
      }
    </style>
  </defs>
  <path id="Aspect_2" data-name="Aspect 2" class="cls-1" d="M5.07,6.4c-3.49,3.83-3.23,9.76.6,13.26,3.51,3.2,8.78,3.24,12.33.28,2.77,2.53,5.37,5.51,8,8.27.75.79,2.07.68,2.8-.13h0s0,0,0,0c.74-.81.73-2.12-.13-2.8-2.98-2.38-6.19-4.7-8.96-7.22,2.63-3.8,2.11-9.05-1.4-12.26-3.83-3.49-9.76-3.23-13.26.6h0ZM7.59,8.78c.23-.3.65-.4,1-.22.39.2.55.69.34,1.08-.04.08-.09.15-.15.21-.78.87-1.14,1.98-1.09,3.07.05,1.08.5,2.15,1.35,2.95.3.23.4.65.22,1-.2.39-.69.55-1.08.34-.06-.03-.12-.07-.17-.12-1.21-1.1-1.85-2.59-1.92-4.1-.07-1.49.43-3.01,1.5-4.21h0ZM6.66,7.84c-2.7,2.95-2.49,7.53.46,10.22,2.95,2.69,7.53,2.49,10.22-.46,2.7-2.95,2.49-7.53-.46-10.22-2.95-2.7-7.53-2.49-10.22.46h0Z"/>
</svg>