<?xml version="1.0" encoding="UTF-8"?>
<svg id="Pictos_Cartes_à_Histoires" data-name="Pictos Cartes à Histoires" xmlns="http://www.w3.org/2000/svg" viewBox="0 0 32 32">
  <defs>
    <style>
      .cls-1 {
        stroke-width: 0px;
      }
    </style>
  </defs>
  <g id="Conte_fées" data-name="Conte fées">
    <path class="cls-1" d="M28.37,10.59c.33.2.72.24,1.1.14.38-.1.69-.33.89-.67.4-.7.16-1.59-.54-1.99-.23-.13-.48-.2-.72-.2-.5,0-1,.26-1.26.72-.2.33-.25.72-.15,1.1.1.38.35.69.68.89Z"/>
    <path class="cls-1" d="M17.46,6.18c0-.8-.65-1.46-1.46-1.46s-1.45.66-1.45,1.46.65,1.45,1.45,1.45c.81,0,1.46-.65,1.46-1.45Z"/>
    <path class="cls-1" d="M3.27,7.92c-.12-.03-.25-.04-.37-.04-.26,0-.51.07-.73.2-.69.4-.93,1.29-.53,1.99.39.66,1.3.93,1.99.53.21-.14.4-.31.53-.53.26-.45.26-1.02,0-1.46-.19-.33-.51-.58-.89-.68Z"/>
    <path class="cls-1" d="M12.02,15.67s-.01.04-.02.05c-.02.03-.05.04-.09.07-.01.01-.02.03-.04.04-.07.03-.13.05-.2.05-.05,0-.11-.01-.16-.03-.02-.01-.03-.02-.04-.03-.01,0-.02,0-.03-.01l-6.83-5c-.16.19-.35.35-.56.47-.2.13-.42.2-.65.25l2.32,11.09c6.81,1.47,13.74,1.47,20.58,0l2.32-11.09c-.23-.05-.44-.12-.65-.24-.21-.13-.39-.29-.55-.48l-6.85,5s-.01.01-.02.01c-.02.01-.03.02-.05.03-.04.02-.1.03-.16.03s-.13-.02-.2-.05c-.02-.01-.03-.03-.05-.04-.02-.02-.05-.03-.08-.07-.01-.01-.01-.03-.02-.05-.01-.01-.02-.01-.02-.02l-3.23-7.32c-.23.08-.47.12-.72.12s-.49-.04-.71-.12l-3.23,7.32s-.02.01-.02.03Z"/>
    <path class="cls-1" d="M26.1,23.47c-3.35.7-6.74,1.07-10.11,1.07s-6.75-.37-10.09-1.07l.39,1.86c6.44,1.35,12.97,1.35,19.43,0l.39-1.86Z"/>
  </g>
</svg>