<?xml version="1.0" encoding="UTF-8"?>
<svg id="Pictos_Cartes_à_Histoires" data-name="Pictos Cartes à Histoires" xmlns="http://www.w3.org/2000/svg" viewBox="0 0 32 32">
  <defs>
    <style>
      .cls-1 {
        stroke-width: 0px;
      }
    </style>
  </defs>
  <g id="_Événement_01" data-name="Événement 01">
    <path class="cls-1" d="M16,1.84C7.47,1.84.53,8.77.53,17.3c0,5.09,2.52,9.86,6.74,12.75.11.08.24.11.36.11.2,0,.41-.1.53-.28.2-.29.13-.69-.17-.9-3.86-2.65-6.17-7.02-6.17-11.69,0-7.82,6.36-14.18,14.18-14.18s14.18,6.36,14.18,14.18c0,4.67-2.31,9.03-6.17,11.68-.29.2-.37.6-.17.9.2.3.6.37.9.17,4.22-2.89,6.73-7.66,6.73-12.75,0-8.53-6.94-15.47-15.47-15.47Z"/>
    <path class="cls-1" d="M27.6,17.3c0-6.39-5.2-11.6-11.6-11.6s-11.6,5.2-11.6,11.6c0,3.82,1.89,7.39,5.05,9.56.11.08.24.11.36.11.2,0,.41-.1.53-.28.2-.29.13-.69-.17-.9-2.81-1.93-4.49-5.1-4.49-8.5,0-5.68,4.63-10.31,10.31-10.31s10.31,4.63,10.31,10.31c0,3.39-1.68,6.57-4.49,8.5-.29.2-.37.6-.17.9.2.3.6.37.9.17,3.16-2.17,5.05-5.74,5.05-9.56Z"/>
    <path class="cls-1" d="M23.73,17.3c0-4.26-3.47-7.73-7.73-7.73s-7.73,3.47-7.73,7.73c0,2.55,1.26,4.93,3.37,6.38.11.08.24.11.36.11.2,0,.41-.1.53-.28.2-.29.13-.69-.17-.9-1.76-1.2-2.81-3.19-2.81-5.31,0-3.55,2.89-6.44,6.44-6.44s6.44,2.89,6.44,6.44c0,2.12-1.05,4.11-2.81,5.31-.3.2-.37.6-.17.9.2.3.6.37.89.17,2.11-1.45,3.37-3.83,3.37-6.37Z"/>
    <circle class="cls-1" cx="16" cy="17.3" r="2.58"/>
  </g>
</svg>