<?xml version="1.0" encoding="UTF-8" standalone="no"?>
<!DOCTYPE svg PUBLIC "-//W3C//DTD SVG 1.1//EN" "http://www.w3.org/Graphics/SVG/1.1/DTD/svg11.dtd">
<svg width="100%" height="100%" viewBox="0 0 30 30" version="1.1" xmlns="http://www.w3.org/2000/svg" xmlns:xlink="http://www.w3.org/1999/xlink" xml:space="preserve" xmlns:serif="http://www.serif.com/" style="fill-rule:evenodd;clip-rule:evenodd;stroke-linejoin:round;stroke-miterlimit:2;">
    <rect id="Artboard1" x="0" y="0" width="29.971" height="29.971" style="fill:none;"/>
    <g id="Artboard11" serif:id="Artboard1">
        <g transform="matrix(1.11954,0,0,1.11954,1.55133,2.1111)">
            <g>
                <path d="M17.373,18.033L17.594,17.99C17.854,17.94 24,16.735 24,13.499C24,12.493 23.675,11.774 23.032,11.361C22.104,10.763 20.804,11.025 20,11.281L20,10.499C20,9.672 19.327,8.999 18.5,8.999L4.5,8.999C3.673,8.999 3,9.672 3,10.499L3,11.499C3,14.482 4.391,17.219 6.695,18.999L0.5,18.999C0.298,18.999 0.115,19.121 0.038,19.308C-0.04,19.495 0.003,19.71 0.146,19.853L1.267,20.974C1.929,21.635 2.808,21.999 3.742,21.999L19.257,21.999C20.178,21.999 21.08,21.625 21.732,20.974L22.853,19.853C22.996,19.71 23.039,19.495 22.961,19.308C22.883,19.121 22.701,18.999 22.499,18.999L16.303,18.999C16.688,18.703 17.043,18.38 17.373,18.033ZM22.491,12.203C22.834,12.422 23,12.847 23,13.499C23,15.162 20.22,16.275 18.383,16.777C19.255,15.475 19.796,13.965 19.941,12.358C20.573,12.118 21.835,11.778 22.491,12.203Z" style="fill-rule:nonzero;"/>
                <path d="M14.61,7.812C14.71,7.936 14.854,8 15.001,8C15.111,8 15.222,7.964 15.314,7.89C15.53,7.718 15.564,7.403 15.392,7.187C14.876,6.544 14.876,5.457 15.394,4.812C16.207,3.796 16.207,2.205 15.394,1.189C15.219,0.973 14.905,0.94 14.691,1.111C14.475,1.283 14.441,1.598 14.613,1.814C15.129,2.457 15.129,3.544 14.611,4.189C13.797,5.204 13.797,6.796 14.61,7.812Z" style="fill-rule:nonzero;"/>
                <path d="M11.607,7.812C11.706,7.936 11.851,8 11.998,8C12.107,8 12.218,7.964 12.31,7.89C12.525,7.718 12.56,7.403 12.388,7.187C11.873,6.544 11.873,5.457 12.389,4.812C13.203,3.796 13.203,2.205 12.389,1.189C12.217,0.974 11.903,0.939 11.686,1.111C11.47,1.283 11.436,1.598 11.608,1.814C12.123,2.457 12.123,3.544 11.607,4.189C10.793,5.204 10.793,6.796 11.607,7.812Z" style="fill-rule:nonzero;"/>
                <path d="M8.611,7.812C8.71,7.935 8.855,7.999 9.002,7.999C9.111,7.999 9.222,7.963 9.314,7.889C9.53,7.717 9.564,7.402 9.392,7.186C8.877,6.543 8.877,5.456 9.393,4.811C10.206,3.795 10.206,2.204 9.393,1.188C9.221,0.973 8.906,0.937 8.69,1.111C8.475,1.283 8.44,1.598 8.613,1.813C9.128,2.456 9.128,3.543 8.612,4.188C7.797,5.204 7.797,6.796 8.611,7.812Z" style="fill-rule:nonzero;"/>
            </g>
        </g>
    </g>
</svg>
