<?xml version="1.0" encoding="UTF-8"?>
<svg id="Pictos_Cartes_à_Histoires" data-name="Pictos Cartes à Histoires" xmlns="http://www.w3.org/2000/svg" viewBox="0 0 32 32">
  <defs>
    <style>
      .cls-1 {
        stroke-width: 0px;
      }
    </style>
  </defs>
  <g id="Fantasy">
    <rect class="cls-1" x="19.76" y="21.81" width="5.33" height="1.36" transform="translate(-9.34 22.44) rotate(-45)"/>
    <polygon class="cls-1" points="24.34 18.94 18.87 24.41 17.91 23.45 23.38 17.97 24.34 18.94"/>
    <path class="cls-1" d="M28.49,27.29c0,.34-.13.66-.37.89-.48.48-1.31.48-1.79,0,0,0-3.98-3.98-3.99-3.98l1.8-1.8s3.98,3.99,3.98,3.99c.24.24.37.56.37.89Z"/>
    <rect class="cls-1" x="8.9" y="19.82" width="1.36" height="5.33" transform="translate(-13.1 13.37) rotate(-45.02)"/>
    <polygon class="cls-1" points="14.09 23.45 13.13 24.41 7.66 18.94 8.63 17.97 14.09 23.45"/>
    <path class="cls-1" d="M9.66,24.2s-3.99,3.98-3.99,3.98c-.24.24-.56.37-.89.37s-.65-.13-.89-.37c-.24-.24-.37-.56-.37-.89s.13-.65.37-.89c0,0,3.98-3.98,3.98-3.99l1.8,1.8Z"/>
    <path class="cls-1" d="M15.64,18.79l-2.89,2.53s-.04.04-.05.07l-2.02-2.02s.05-.03.07-.05l2.38-2.72,2.51,2.2Z"/>
    <path class="cls-1" d="M21.32,19.37l-2.02,2.02s-.03-.04-.05-.06L3.8,7.81l-.65-4.27,12.28,12.28s.11.07.17.07c.06,0,.12-.02.16-.07.09-.09.09-.24,0-.33L3.48,3.21l4.26.65,13.51,15.45s.04.04.06.05Z"/>
    <polygon class="cls-1" points="28.85 3.54 28.19 7.81 18.91 15.93 17.77 14.62 28.85 3.54"/>
    <polygon class="cls-1" points="28.52 3.21 17.47 14.27 16.32 12.95 24.25 3.87 28.52 3.21"/>
  </g>
</svg>