<?xml version="1.0" encoding="UTF-8" standalone="no"?>
<!DOCTYPE svg PUBLIC "-//W3C//DTD SVG 1.1//EN" "http://www.w3.org/Graphics/SVG/1.1/DTD/svg11.dtd">
<svg width="100%" height="100%" viewBox="0 0 30 30" version="1.1" xmlns="http://www.w3.org/2000/svg" xmlns:xlink="http://www.w3.org/1999/xlink" xml:space="preserve" xmlns:serif="http://www.serif.com/" style="fill-rule:evenodd;clip-rule:evenodd;stroke-linejoin:round;stroke-miterlimit:2;">
    <rect id="Artboard1" x="0" y="0" width="30" height="30" style="fill:none;"/>
    <g id="Artboard11" serif:id="Artboard1">
        <g transform="matrix(1.09179,0,0,1.09179,1.89855,1.89855)">
            <path d="M7.5,7L16.5,7C16.775,7 17,6.776 17,6.5L17,0L7,0L7,6.5C7,6.776 7.224,7 7.5,7ZM13,2.5C13,2.224 13.224,2 13.5,2L15.5,2C15.776,2 16,2.224 16,2.5L16,5.5C16,5.776 15.776,6 15.5,6L13.5,6C13.224,6 13,5.776 13,5.5L13,2.5Z" style="fill-rule:nonzero;"/>
            <path d="M18.5,10L5.5,10C4.673,10 4,10.673 4,11.5L4,24L20,24L20,11.5C20,10.673 19.327,10 18.5,10ZM17.5,20L6.5,20C6.224,20 6,19.776 6,19.5C6,19.224 6.224,19 6.5,19L17.5,19C17.776,19 18,19.224 18,19.5C18,19.776 17.776,20 17.5,20ZM17.5,17L6.5,17C6.224,17 6,16.776 6,16.5C6,16.224 6.224,16 6.5,16L17.5,16C17.776,16 18,16.224 18,16.5C18,16.776 17.776,17 17.5,17ZM17.5,14L6.5,14C6.224,14 6,13.776 6,13.5C6,13.224 6.224,13 6.5,13L17.5,13C17.776,13 18,13.224 18,13.5C18,13.776 17.776,14 17.5,14Z" style="fill-rule:nonzero;"/>
            <path d="M23.854,4.146L19.854,0.146C19.76,0.053 19.633,0 19.5,0L18,0L18,6.5C18,7.327 17.327,8 16.5,8L7.5,8C6.673,8 6,7.327 6,6.5L6,0L1.5,0C0.673,0 0,0.673 0,1.5L0,22.5C0,23.327 0.673,24 1.5,24L3,24L3,11.5C3,10.122 4.122,9 5.5,9L18.5,9C19.879,9 21,10.122 21,11.5L21,24L22.5,24C23.327,24 24,23.327 24,22.5L24,4.5C24,4.367 23.947,4.24 23.854,4.146Z" style="fill-rule:nonzero;"/>
        </g>
    </g>
</svg>
