<?xml version="1.0" encoding="UTF-8"?>
<svg id="Pictos_Cartes_à_Histoires" data-name="Pictos Cartes à Histoires" xmlns="http://www.w3.org/2000/svg" viewBox="0 0 32 32">
  <defs>
    <style>
      .cls-1 {
        stroke-width: 0px;
      }
    </style>
  </defs>
  <path id="Steampunk" class="cls-1" d="M18.89,17.44c-.32-.89-.79-1.71-1.39-2.42l1.14-2.88c-1.09-.98-2.38-1.74-3.81-2.21l-1.93,2.43c-.45-.08-.92-.13-1.4-.13s-.94.05-1.4.13l-1.93-2.43c-1.43.47-2.72,1.23-3.81,2.21l1.14,2.87c-.6.71-1.07,1.53-1.39,2.42l-3.07.45c-.15.71-.23,1.45-.23,2.2s.08,1.49.23,2.2l3.07.45c.32.89.79,1.71,1.39,2.42l-1.14,2.87c1.09.98,2.38,1.74,3.81,2.21l1.93-2.43c.45.08.92.13,1.39.13s.94-.05,1.39-.13l1.93,2.43c1.43-.47,2.72-1.23,3.81-2.21l-1.14-2.87c.6-.71,1.07-1.53,1.39-2.42l3.07-.45c.15-.71.23-1.45.23-2.2s-.08-1.49-.23-2.2l-3.07-.45ZM11.5,23.31c-1.78,0-3.22-1.44-3.22-3.22s1.44-3.22,3.22-3.22,3.22,1.44,3.22,3.22-1.44,3.22-3.22,3.22ZM30.8,6.41l-1.86-.21c-.21-.52-.51-1.01-.9-1.43l.63-1.78c-.34-.28-.71-.53-1.11-.75-.4-.21-.82-.38-1.24-.5l-1.11,1.52c-.57-.08-1.14-.06-1.69.06l-1.22-1.42c-.84.31-1.61.78-2.26,1.41l.76,1.72c-.17.22-.33.46-.47.71-.14.26-.24.52-.32.79l-1.85.34c-.15.9-.11,1.8.11,2.67l1.86.2c.21.52.51,1.01.9,1.43l-.63,1.78c.34.28.71.53,1.11.75.4.21.82.38,1.24.5l1.11-1.52c.57.08,1.14.06,1.69-.06l1.22,1.42c.84-.31,1.61-.78,2.26-1.41l-.76-1.72c.17-.22.33-.45.46-.71.14-.26.24-.52.32-.78l1.85-.34c.15-.9.11-1.8-.1-2.67ZM26.25,8.89c-.5.95-1.68,1.32-2.64.81-.95-.5-1.32-1.68-.81-2.64.5-.95,1.68-1.32,2.63-.81.95.5,1.32,1.68.81,2.64Z"/>
</svg>