<?xml version="1.0" encoding="UTF-8"?>
<svg id="Pictos_Cartes_à_Histoires" data-name="Pictos Cartes à Histoires" xmlns="http://www.w3.org/2000/svg" viewBox="0 0 32 32">
  <defs>
    <style>
      .cls-1 {
        stroke-width: 0px;
      }
    </style>
  </defs>
  <g id="Polar">
    <path class="cls-1" d="M15.56,15.67c-1.3,2.6-2,3.06-2.23,3.13l-1.06-3.08-8.95,3.07,1.72,5.02h0c.67,1.8,2.4,3.09,4.44,3.09.76,0,1.48-.18,2.12-.5h0c5.08-2.02,8.12-10.74,8.12-10.74l-3.42-1.6-.76,1.62Z"/>
    <rect class="cls-1" x="17.73" y="12.3" width="1.93" height="2.65" transform="translate(-1.95 24.06) rotate(-62.88)"/>
    <path class="cls-1" d="M28.73,5.99c-.29,0-.55.15-.69.38-.87-.04-4.11-.15-5.76.61-2.45,1.12-4.01,4.43-4.15,4.75l2.44,1.2s.89-2.95,2.18-4.23c1.22-1.22,3.64-1.37,5.28-1.45.15.23.4.39.7.39.46,0,.82-.37.82-.82,0-.46-.37-.82-.82-.82Z"/>
  </g>
</svg>