<?xml version="1.0" encoding="UTF-8"?>
<svg id="Pictos_Cartes_à_Histoires" data-name="Pictos Cartes à Histoires" xmlns="http://www.w3.org/2000/svg" viewBox="0 0 32 32">
  <defs>
    <style>
      .cls-1, .cls-2 {
        stroke-width: 0px;
      }

      .cls-2 {
        fill: #fff;
      }
    </style>
  </defs>
  <g id="Horreur">
    <path class="cls-1" d="M23.05,20.22c-.14.23-1.36,2.24-1.36,3.22,0,.9.76,1.64,1.7,1.64s1.7-.74,1.7-1.64c0-.97-1.22-2.99-1.36-3.22-.15-.24-.54-.24-.69,0Z"/>
    <path class="cls-1" d="M9.73,19.79l2.35,2.34-5.61,5.41s-1.02.99-2.12-.15.01-2.3.01-2.3l5.36-5.3Z"/>
    <ellipse class="cls-2" cx="5.5" cy="26.26" rx=".41" ry=".41"/>
    <ellipse class="cls-2" cx="8.06" cy="23.76" rx=".41" ry=".41"/>
    <path class="cls-1" d="M27.99,12.06c.11-.21.22-.42.31-.63,0,0,0-.02.01-.03,1.23-2.87.61-6.23-1.71-8.51l-.28-.28L9.74,18.66h0s-.3.29-.3.29l-.28.27h0s-5.35,5.3-5.35,5.3c-.46.46-.72,1.06-.73,1.72,0,.65.24,1.26.7,1.73h0c.47.48,1.1.72,1.72.72s1.22-.23,1.69-.68l5.46-5.29,2.46,2.45,5.11-5.01s0,0,0,0l3.91-3.83v.08c0,.92.76,1.68,1.7,1.68s1.7-.75,1.7-1.68v-3.62c.15-.21.28-.43.4-.65.01-.02.02-.04.03-.06ZM6.64,27.42c-.63.61-1.65.6-2.28-.02h0c-.31-.31-.47-.72-.47-1.16,0-.43.18-.84.49-1.15l5.36-5.3,2.35,2.34-5.45,5.28ZM10.31,19.23L26.3,3.75c.76.83,1.28,1.81,1.56,2.83-.67.04-1.79.25-2.68,1.06-.81.74-1.24,1.8-1.29,3.17-.05,1.47-1.07,2.02-2.25,2.66-.32.17-.64.35-.95.54-1.05.67-1.71,1.61-1.91,2.72-.19,1.03.05,2.13.65,3.07l-4.31,4.22-4.82-4.8Z"/>
  </g>
</svg>