<?xml version="1.0" encoding="UTF-8" standalone="no"?>
<!DOCTYPE svg PUBLIC "-//W3C//DTD SVG 1.1//EN" "http://www.w3.org/Graphics/SVG/1.1/DTD/svg11.dtd">
<svg width="100%" height="100%" viewBox="0 0 33 33" version="1.1" xmlns="http://www.w3.org/2000/svg" xmlns:xlink="http://www.w3.org/1999/xlink" xml:space="preserve" xmlns:serif="http://www.serif.com/" style="fill-rule:evenodd;clip-rule:evenodd;stroke-linejoin:round;stroke-miterlimit:2;">
    <g id="Artboard1" transform="matrix(0.0640865,0,0,0.0640865,0,-1.19969)">
        <rect x="0" y="18.72" width="500" height="500" style="fill:none;"/>
        <g transform="matrix(0.932521,0,0,0.932521,68.1832,-101.444)">
            <path d="M435,441.5C393.4,415.4 365.3,417 340.5,418.3C331.9,418.8 323.7,419.2 314.8,418.3C276.8,414.2 254.8,372.7 272.9,339.2C273,339 273.1,338.9 273.2,338.7C281.7,323.1 286.6,304.7 286.6,285C286.6,228.1 245.6,182 195,182C144.4,182 103.4,228.1 103.4,285C103.4,304.7 108.3,323 116.8,338.7C116.9,338.9 117,339 117.1,339.2C135.2,372.8 113.2,414.3 75.2,418.3C66.4,419.2 58.2,418.8 49.5,418.3C24.7,416.9 -3.4,415.4 -45,441.5C-55,447.8 -58,460.9 -51.7,470.8C-47.6,477.2 -40.7,480.8 -33.6,480.8C-29.7,480.8 -25.8,479.7 -22.3,477.5C7.8,458.7 25.2,459.6 47.1,460.8C66.2,461.8 87,463 114.3,452C107.6,458.2 100.4,463.9 92.8,469.9C68,489.4 40,511.5 23.7,559.8C19.9,571 26,583.7 37.3,587.3C39.5,588 41.7,588.3 43.8,588.3C52.7,588.3 61.1,582.7 64.1,573.7C76.3,537.1 96.3,521.4 119.3,503.2C137.5,488.8 157.6,473 173.2,446.3C173.8,470.2 176.9,486.2 179.5,499.9C183.8,522.5 187,538.8 175.3,584.8C172.5,595.9 178.6,607.6 189.6,610.9C191.7,611.5 193.8,611.9 195.9,611.9C205.4,611.9 214.1,605.5 216.6,595.9C230.8,540.2 226.5,517.8 221.5,491.9C219.1,479.3 216.4,465.6 215.9,445C231.6,472.5 252,488.6 270.5,503.2C293.6,521.4 313.5,537.1 325.7,573.7C328.7,582.6 337,588.3 346,588.3C348.2,588.3 350.4,588 352.6,587.3C363.9,583.7 369.9,571 366.1,559.8C349.8,511.6 321.8,489.5 297,470C289.4,464 282.2,458.3 275.5,452.1C302.9,463.1 323.6,462 342.7,460.9C364.7,459.7 382,458.7 412.1,477.6C415.6,479.8 419.6,480.9 423.4,480.9C430.5,480.9 437.4,477.4 441.5,470.9C448,460.9 445,447.8 435,441.5ZM167.4,367.8C156.9,367.8 148.4,359.6 148.4,349.5C148.4,347.3 148.8,345.2 149.5,343.3C158.3,349.3 171.2,353.3 185.8,354.2C183.7,362 176.3,367.8 167.4,367.8ZM222.6,367.8C213.8,367.8 206.4,362 204.2,354.2C218.8,353.3 231.7,349.3 240.5,343.3C241.2,345.2 241.6,347.3 241.6,349.5C241.6,359.6 233.1,367.8 222.6,367.8Z" style="fill-rule:nonzero;"/>
        </g>
    </g>
</svg>
