<?xml version="1.0" encoding="UTF-8"?>
<svg id="Pictos_Cartes_à_Histoires" data-name="Pictos Cartes à Histoires" xmlns="http://www.w3.org/2000/svg" viewBox="0 0 32 32">
  <defs>
    <style>
      .cls-1 {
        stroke-width: 0px;
      }
    </style>
  </defs>
  <path id="Objet_01" data-name="Objet 01" class="cls-1" d="M16,.4C11.34.4,7.55,4.19,7.55,8.85c0,3.95,2.7,7.32,6.5,8.21v4.13h-1.95c-.36,0-.65.29-.65.65v2.6c0,.36.29.65.65.65h1.95v1.3h-1.95c-.36,0-.65.29-.65.65v2.6c0,.36.29.65.65.65h2.06c.27.76.99,1.3,1.84,1.3,1.07,0,1.95-.87,1.95-1.95v-12.58c3.8-.89,6.5-4.26,6.5-8.21C24.45,4.19,20.66.4,16,.4ZM16,9.5c-1.79,0-3.25-1.46-3.25-3.25s1.46-3.25,3.25-3.25,3.25,1.46,3.25,3.25-1.46,3.25-3.25,3.25Z"/>
</svg>