<?xml version="1.0" encoding="UTF-8"?>
<svg id="Calque_2" data-name="Calque 2" xmlns="http://www.w3.org/2000/svg" viewBox="0 0 28.33 30.91">
  <defs>
    <style>
      .cls-1 {
        stroke-width: 0px;
      }
    </style>
  </defs>
  <g id="Pictos_Cartes_à_Histoires" data-name="Pictos Cartes à Histoires">
    <path id="Participant_01" data-name="Participant 01" class="cls-1" d="M27.69,0C14.6,0,3.83,10.07,2.69,22.87c2.18-3.07,4.84-6.02,8.17-9.41.25-.26.66-.26.91,0,.25.25.26.66,0,.91-.5.51-1.01,1.04-1.52,1.58-.29.31-.58.61-.86.91-.05.06-.1.11-.15.17C5.13,21.41,2.19,25.24.06,30c-.15.32,0,.71.32.85.09.04.18.06.26.06.25,0,.48-.14.59-.38.76-1.69,1.64-3.26,2.63-4.79,9-.23,17.18-5.23,21.47-13.2.11-.2.1-.44-.01-.64-.12-.19-.33-.31-.55-.31h-2.39l4.28-2.44c.14-.08.24-.2.29-.35.92-2.67,1.38-5.41,1.38-8.15,0-.36-.29-.64-.64-.64Z"/>
  </g>
</svg>